<svg width="160" height="160" viewBox="0 0 160 160" fill="none" xmlns="http://www.w3.org/2000/svg">
  <rect width="160" height="160" rx="48" fill="url(#paint0_linear_1504_6)"/>
  <circle cx="80" cy="78" r="54" fill="url(#paint1_linear_1504_6)"/>
  <path d="M51 64C51 43.0132 68.0132 26 89 26C109.987 26 127 43.0132 127 64V74H51V64Z" fill="#155E75"/>
  <path d="M103 81C103 96.464 92.7025 109 80 109C67.2975 109 57 96.464 57 81V68H103V81Z" fill="#FFD9BC"/>
  <path d="M70.5 80C72.9853 80 75 77.9853 75 75.5C75 73.0147 72.9853 71 70.5 71C68.0147 71 66 73.0147 66 75.5C66 77.9853 68.0147 80 70.5 80Z" fill="#1F2937"/>
  <path d="M91.5 80C93.9853 80 96 77.9853 96 75.5C96 73.0147 93.9853 71 91.5 71C89.0147 71 87 73.0147 87 75.5C87 77.9853 89.0147 80 91.5 80Z" fill="#1F2937"/>
  <path d="M73 92C76.0977 94.4669 79.9439 95.8053 83.9032 95.7926C87.8624 95.7799 91.6999 94.4168 94.7817 91.9301" stroke="#B46845" stroke-width="4" stroke-linecap="round"/>
  <path d="M43 139C43 116.909 60.9086 99 83 99H85C107.091 99 125 116.909 125 139V160H43V139Z" fill="url(#paint2_linear_1504_6)"/>
  <rect x="107" y="37" width="18" height="18" rx="5" fill="#14B8A6"/>
  <path d="M111 46H121" stroke="#F2FFFC" stroke-width="3" stroke-linecap="round"/>
  <path d="M116 41V51" stroke="#F2FFFC" stroke-width="3" stroke-linecap="round"/>
  <defs>
    <linearGradient id="paint0_linear_1504_6" x1="24" y1="14" x2="145" y2="153" gradientUnits="userSpaceOnUse">
      <stop stop-color="#F4FEFD"/>
      <stop offset="1" stop-color="#E5FBF8"/>
    </linearGradient>
    <linearGradient id="paint1_linear_1504_6" x1="37" y1="29" x2="122" y2="124" gradientUnits="userSpaceOnUse">
      <stop stop-color="#FFFFFF" stop-opacity="0.95"/>
      <stop offset="1" stop-color="#D8F5F0"/>
    </linearGradient>
    <linearGradient id="paint2_linear_1504_6" x1="45" y1="102" x2="123" y2="159" gradientUnits="userSpaceOnUse">
      <stop stop-color="#0F766E"/>
      <stop offset="1" stop-color="#0E7490"/>
    </linearGradient>
  </defs>
</svg>
