<svg width="160" height="160" viewBox="0 0 160 160" fill="none" xmlns="http://www.w3.org/2000/svg">
  <rect width="160" height="160" rx="48" fill="url(#paint0_linear_1504_8)"/>
  <circle cx="80" cy="78" r="54" fill="url(#paint1_linear_1504_8)"/>
  <path d="M52 64C52 42.4609 69.4609 25 91 25C112.539 25 130 42.4609 130 64V74H52V64Z" fill="#1E293B"/>
  <path d="M103 81C103 96.464 92.7025 109 80 109C67.2975 109 57 96.464 57 81V68H103V81Z" fill="#FFD8BC"/>
  <path d="M70 80C72.4853 80 74.5 77.9853 74.5 75.5C74.5 73.0147 72.4853 71 70 71C67.5147 71 65.5 73.0147 65.5 75.5C65.5 77.9853 67.5147 80 70 80Z" fill="#0F172A"/>
  <path d="M91 80C93.4853 80 95.5 77.9853 95.5 75.5C95.5 73.0147 93.4853 71 91 71C88.5147 71 86.5 73.0147 86.5 75.5C86.5 77.9853 88.5147 80 91 80Z" fill="#0F172A"/>
  <path d="M73 92C76.1899 94.7184 80.245 96.2187 84.436 96.2338C88.6271 96.2488 92.6928 94.7777 95.9022 92.0823" stroke="#B86945" stroke-width="4" stroke-linecap="round"/>
  <path d="M43 139C43 116.909 60.9086 99 83 99H85C107.091 99 125 116.909 125 139V160H43V139Z" fill="url(#paint2_linear_1504_8)"/>
  <path d="M80 111L86.5 123L100 125L90 134.5L92.5 148L80 141L67.5 148L70 134.5L60 125L73.5 123L80 111Z" fill="#F59E0B"/>
  <defs>
    <linearGradient id="paint0_linear_1504_8" x1="23" y1="14" x2="145" y2="153" gradientUnits="userSpaceOnUse">
      <stop stop-color="#F8FBFF"/>
      <stop offset="1" stop-color="#EAF2FF"/>
    </linearGradient>
    <linearGradient id="paint1_linear_1504_8" x1="37" y1="29" x2="122" y2="124" gradientUnits="userSpaceOnUse">
      <stop stop-color="#FFFFFF" stop-opacity="0.94"/>
      <stop offset="1" stop-color="#DFEAFE"/>
    </linearGradient>
    <linearGradient id="paint2_linear_1504_8" x1="45" y1="102" x2="123" y2="159" gradientUnits="userSpaceOnUse">
      <stop stop-color="#1D4ED8"/>
      <stop offset="1" stop-color="#0F766E"/>
    </linearGradient>
  </defs>
</svg>
