<svg width="160" height="160" viewBox="0 0 160 160" fill="none" xmlns="http://www.w3.org/2000/svg">
  <rect width="160" height="160" rx="48" fill="url(#paint0_linear_1504_2)"/>
  <circle cx="80" cy="78" r="54" fill="url(#paint1_linear_1504_2)"/>
  <path d="M52 62C52 44.3269 66.3269 30 84 30C101.673 30 116 44.3269 116 62V71H52V62Z" fill="#1E3A8A"/>
  <path d="M62 59C62 46.2975 72.2975 36 85 36C97.7025 36 108 46.2975 108 59V73H62V59Z" fill="#0F172A"/>
  <path d="M102 81C102 96.464 91.7025 109 79 109C66.2975 109 56 96.464 56 81V68H102V81Z" fill="#FFD9BC"/>
  <path d="M67 82C69.4853 82 71.5 79.9853 71.5 77.5C71.5 75.0147 69.4853 73 67 73C64.5147 73 62.5 75.0147 62.5 77.5C62.5 79.9853 64.5147 82 67 82Z" fill="#0F172A"/>
  <path d="M91 82C93.4853 82 95.5 79.9853 95.5 77.5C95.5 75.0147 93.4853 73 91 73C88.5147 73 86.5 75.0147 86.5 77.5C86.5 79.9853 88.5147 82 91 82Z" fill="#0F172A"/>
  <path d="M71 93C74.0712 95.6893 77.8534 97 81.7435 97C85.6336 97 89.4158 95.6893 92.487 93" stroke="#BC6A46" stroke-width="4" stroke-linecap="round"/>
  <path d="M45 138C45 115.909 62.9086 98 85 98H87C109.091 98 127 115.909 127 138V160H45V138Z" fill="url(#paint2_linear_1504_2)"/>
  <path d="M67 110L82 126L97 110" stroke="#F8FBFF" stroke-width="4" stroke-linecap="round" stroke-linejoin="round"/>
  <path d="M53 48C59.2367 37.8754 69.9704 31 82.3099 31H87C102.464 31 115 43.536 115 59V63C113.333 58.5 108.1 48.2 100.5 43C90.2565 35.993 69.5 39.5 53 48Z" fill="#1E40AF"/>
  <defs>
    <linearGradient id="paint0_linear_1504_2" x1="24" y1="16" x2="141" y2="152" gradientUnits="userSpaceOnUse">
      <stop stop-color="#F8FBFF"/>
      <stop offset="1" stop-color="#DDF2F2"/>
    </linearGradient>
    <linearGradient id="paint1_linear_1504_2" x1="38" y1="30" x2="125" y2="127" gradientUnits="userSpaceOnUse">
      <stop stop-color="#FFFFFF" stop-opacity="0.92"/>
      <stop offset="1" stop-color="#D8EAFE"/>
    </linearGradient>
    <linearGradient id="paint2_linear_1504_2" x1="48" y1="103" x2="122" y2="157" gradientUnits="userSpaceOnUse">
      <stop stop-color="#1647A5"/>
      <stop offset="1" stop-color="#1499A5"/>
    </linearGradient>
  </defs>
</svg>
