<svg width="128" height="128" viewBox="0 0 128 128" fill="none" xmlns="http://www.w3.org/2000/svg">
  <rect width="128" height="128" rx="26" fill="#F8FBFC"/>
  <rect x="9" y="9" width="110" height="110" rx="22" fill="#FFFFFF" stroke="#D9E5EE" stroke-width="2"/>
  <path d="M30 38C30 34.6863 32.6863 32 36 32H57C60.866 32 64 35.134 64 39V96C60.5 90.4 55 87.6 47.5 87.6H36C32.6863 87.6 30 84.9137 30 81.6V38Z" fill="#1F5FAE"/>
  <path d="M98 38C98 34.6863 95.3137 32 92 32H71C67.134 32 64 35.134 64 39V96C67.5 90.4 73 87.6 80.5 87.6H92C95.3137 87.6 98 84.9137 98 81.6V38Z" fill="#0F766E"/>
  <path d="M44 48H55" stroke="#EAF3FF" stroke-width="4" stroke-linecap="round"/>
  <path d="M44 59H55" stroke="#BFD8FF" stroke-width="4" stroke-linecap="round"/>
  <path d="M73 48H84" stroke="#E5FBF5" stroke-width="4" stroke-linecap="round"/>
  <path d="M73 59H84" stroke="#B9EBDF" stroke-width="4" stroke-linecap="round"/>
  <path d="M45 78C50.6 73.3333 56.9333 71 64 71C71.0667 71 77.4 73.3333 83 78" stroke="#F0B84A" stroke-width="5" stroke-linecap="round"/>
  <circle cx="64" cy="71" r="6" fill="#F0B84A" stroke="#FFF7E2" stroke-width="3"/>
  <circle cx="44" cy="78" r="4" fill="#F0B84A"/>
  <circle cx="84" cy="78" r="4" fill="#F0B84A"/>
</svg>
